<svg width="1024" height="1024" xmlns="http://www.w3.org/2000/svg" xmlns:xlink="http://www.w3.org/1999/xlink"><path d="M20 136s52.305 210.544 164 422c157.567 298.299 328 466 328 466V0s-78.323 90.847-210 131c-153.756 46.885-282 5-282 5zm984 0s-52.305 210.544-164 422c-157.567 298.299-328 466-328 466V0s78.323 90.847 210 131c153.756 46.885 282 5 282 5z" fill="#242d48"/><path d="M512 964V429s-26.001 84.345-106 152c-61.701 52.181-130 51-130 51s51.814 97.29 84 144c45.139 65.509 152 188 152 188zm0 0V429s26.001 84.345 106 152c61.701 52.181 130 51 130 51s-51.814 97.29-84 144c-45.139 65.509-152 188-152 188z" fill="#d5796c"/><path d="M512 965V520s-28.308 87.122-97 143c-53.991 43.919-86 53-86 53s23.008 47.599 50.966 85.492C419.176 854.633 512 965 512 965zm0 0V520s28.307 87.122 97 143c53.991 43.919 86 53 86 53s-23.008 47.599-50.966 85.492C604.824 854.633 512 965 512 965z" fill="#af6476"/><path d="M512 963V578s-31.176 100.52-68 147c-43.365 54.736-60 68-60 68s38.008 58.599 65.966 96.492C489.176 942.633 512 963 512 963zm0 0V578s31.176 100.52 68 147c43.365 54.736 60 68 60 68s-38.008 58.599-65.966 96.492C534.824 942.633 512 963 512 963zm0 0" fill="#86212d"/><defs><path id="a" d="M432.5 869.813l17.281 21.312 17.625 21.016 22.407 25.593 16.734 18.25 5.453 5.641 5.438-5.641 16.734-18.25 22.406-25.593 17.625-21.016 17.172-21.172 21.203-27.125 34.844-46.844 18.219-25.703 18.875-27.531 32.422-49.656 33.218-54.266 26.766-46.578 30.547-56.766 21.859-44.109 23.891-52.328 21.14-50.344 19.938-51.5 19.969-56.328 18.484-57.547 8.641-29.422 2.328-8.593-6.61 1.546-18.25 3.469-14.687 2.219-14.391 1.719-17.984 1.515-19.547.907-15.641.171-16.39-.343-17.141-.969-29.719-3.094-18.671-2.906-12.782-2.438-19.359-4.39-13.188-3.5-12.859-3.813-16.797-5.64-26.281-10.485-14.984-6.859-14.25-7.203-26.079-14.813-12.062-7.64-14.844-10.094-23.828-18.063-10.797-9-13.25-11.89-9.875-9.594L512 62.578l-1.469 1.547-9.875 9.594-13.25 11.89-10.797 9-23.828 18.063-14.843 10.094-12.063 7.64-26.078 14.813-14.25 7.203-14.984 6.859-26.282 10.485-16.797 5.64-12.859 3.813-13.187 3.5-19.36 4.39-12.781 2.438-18.672 2.906-29.719 3.094-17.14.969-16.391.343-15.641-.171-19.546-.907-17.985-1.515-14.39-1.719-14.688-2.219-18.25-3.469-6.594-1.546 2.25 8.39 8.625 29.375 18.469 57.516 20.063 56.609 19.828 51.235 21.125 50.328 24.015 52.609 21.86 44.109L246.922 592l26.766 46.594 33.203 54.25 32.453 49.719 19 27.718 18.219 25.703 34.843 46.844z"/></defs><use stroke="#fff" stroke-linecap="round" fill="none" stroke-width="20" xlink:href="#a"/><path d="M436 452l5-80 17-31V210s-1-84 54-84 56 85 56 85v130l17 31 5 80-58-37h-40l-56 37zm76-230c12.703 0 23-10.297 23-23s-10.297-23-23-23-23 10.297-23 23 10.297 23 23 23zM267 473s22.064-.307 39 21c13.785 17.343 17 42 17 42s2.463-25.976 20-44c17.751-18.244 36-19 36-19s-23.999-3.872-39-22c-15.237-18.412-19-43-19-43s.724 15.544-17 43c-12.522 19.398-37 22-37 22zM729 353.464s10.244-.142 18.107 9.75c6.401 8.052 7.893 19.5 7.893 19.5s1.144-12.06 9.286-20.428c8.241-8.471 16.714-8.822 16.714-8.822s-11.142-1.797-18.107-10.214c-7.074-8.549-8.822-19.964-8.822-19.964s.337 7.217-7.892 19.964C740.365 352.256 729 353.464 729 353.464zM640 277.768s16.942-.236 29.946 16.125c10.586 13.316 13.054 32.25 13.054 32.25s1.891-19.946 15.357-33.786C711.988 278.349 726 277.768 726 277.768s-18.427-2.973-29.946-16.893c-11.7-14.138-14.59-33.018-14.59-33.018s.557 11.936-13.053 33.018C658.795 275.77 640 277.768 640 277.768z" fill="#fff"/><path d="M20 136s52.305 210.544 164 422c157.567 298.299 328 466 328 466V0s-78.323 90.847-210 131c-153.756 46.885-282 5-282 5z" fill="#fff" fill-opacity=".179"/></svg>