<svg xmlns="http://www.w3.org/2000/svg" viewBox="0 0 100.71 104.96"><defs><style>.cls-1{fill:#242d48;}.cls-2,.cls-6{fill:#fff;}.cls-3{fill:#d5796c;}.cls-4{fill:#af6476;}.cls-5{fill:#86212d;}.cls-6{opacity:0.18;}</style></defs><title>Fichier 2</title><g id="Calque_2" data-name="Calque 2"><g id="Calque_1-2" data-name="Calque 1"><path class="cls-1" d="M100.71,13.94A206.37,206.37,0,0,1,81.32,61.79a236.37,236.37,0,0,1-31,43.06V0A49.85,49.85,0,0,0,82.13,15.39,55,55,0,0,0,100.71,13.94Z"/><path class="cls-1" d="M50.36,0V104.85a235.43,235.43,0,0,1-31-43.06A206.37,206.37,0,0,1,0,13.94a55,55,0,0,0,18.58,1.45A49.86,49.86,0,0,0,50.36,0Z"/><path class="cls-2" d="M96,17.56A186.52,186.52,0,0,1,78.41,60.91a213.89,213.89,0,0,1-28,39v-95a45.22,45.22,0,0,0,28.79,14A49.68,49.68,0,0,0,96,17.56Z"/><path class="cls-2" d="M50.36,4.93v95a214.37,214.37,0,0,1-28-39A187.05,187.05,0,0,1,4.74,17.56a49.81,49.81,0,0,0,16.84,1.32A45.18,45.18,0,0,0,50.36,4.93Z"/><path class="cls-1" d="M93.41,19.52A176.31,176.31,0,0,1,76.84,60.43,202,202,0,0,1,50.36,97.25V7.6A42.63,42.63,0,0,0,77.53,20.76,46.66,46.66,0,0,0,93.41,19.52Z"/><path class="cls-1" d="M50.36,7.6V97.25A201.49,201.49,0,0,1,23.89,60.43,176,176,0,0,1,7.31,19.52,46.67,46.67,0,0,0,23.2,20.76,42.6,42.6,0,0,0,50.36,7.6Z"/><g id="Fusée"><path class="cls-2" d="M55.38,21.79v12H45.33v-12h3.09a2.14,2.14,0,0,0,3.77,0Z"/><path class="cls-2" d="M50.35,14.11c-2.78,0-5,3.26-5,7.26,0,.14,0,.28,0,.42.14,3.82,2.33,6.85,5,6.85s4.87-3,5-6.85a3,3,0,0,0,0-.42C55.38,17.37,53.13,14.11,50.35,14.11Zm0,8.81a2.14,2.14,0,0,1-1.89-1.13,2.09,2.09,0,0,1-.26-1,2.15,2.15,0,0,1,4.29,0,2.09,2.09,0,0,1-.26,1A2.13,2.13,0,0,1,50.31,22.92Z"/><rect class="cls-2" x="46.22" y="36.42" width="4.69" height="3.93"/><line class="cls-2" x1="47.19" y1="36.42" x2="46.22" y2="36.42"/><polygon class="cls-2" points="46.22 36.41 43.75 36.41 43.46 43.69 48.59 40.35 49.41 39.82 47.19 36.41 46.22 36.41"/><rect class="cls-2" x="49.81" y="36.42" width="4.69" height="3.93"/><line class="cls-2" x1="54.49" y1="36.42" x2="53.52" y2="36.42"/><polygon class="cls-2" points="53.52 36.41 51.31 39.82 52.12 40.35 57.26 43.69 56.97 36.41 54.49 36.41 53.52 36.41"/><polygon class="cls-2" points="46.22 32.01 43.77 36.41 46.23 36.41 46.22 32.01"/><polygon class="cls-2" points="54.51 32.01 56.96 36.41 54.5 36.41 54.51 32.01"/><rect class="cls-2" x="45.8" y="32.76" width="9" height="4.1"/></g><path class="cls-3" d="M74.39,64.69a203,203,0,0,1-24,32.56V43.74C54.92,55.89,63.94,64.27,74.39,64.69Z"/><path class="cls-4" d="M69,73.23l-.12.2A206.84,206.84,0,0,1,50.36,97.25V53.17C53.79,62.57,60.59,69.93,69,73.23Z"/><path class="cls-5" d="M63.49,81.17c-4.46,6-8.92,11.41-13.13,16.08V59.09C53,68.4,57.64,76.16,63.49,81.17Z"/><path class="cls-3" d="M26.34,64.69a203,203,0,0,0,24,32.56V43.74C45.8,55.89,36.79,64.27,26.34,64.69Z"/><path class="cls-4" d="M31.7,73.23a1.51,1.51,0,0,0,.12.2A208,208,0,0,0,50.36,97.25V53.17C46.94,62.57,40.14,69.93,31.7,73.23Z"/><path class="cls-5" d="M37.24,81.17c4.45,6,8.92,11.41,13.12,16.08V59.09C47.73,68.4,43.08,76.16,37.24,81.17Z"/><path class="cls-2" d="M71.28,27.82A2.69,2.69,0,0,0,69,30.26c-.28-1.35-.85-2.28-2.24-2.44,1.35-.19,1.9-1.23,2.17-2.56A2.82,2.82,0,0,0,71.28,27.82Z"/><path class="cls-2" d="M32.82,49c-1.83.28-2.87,1.6-3.24,3.53-.4-2-1.23-3.3-3.24-3.53,2-.27,2.75-1.77,3.14-3.69C29.85,47.28,31,48.78,32.82,49Z"/><path class="cls-2" d="M77,33.78a1.78,1.78,0,0,0-1.48,1.6c-.18-.89-.56-1.5-1.48-1.6.9-.13,1.26-.81,1.44-1.69A1.87,1.87,0,0,0,77,33.78Z"/><path class="cls-6" d="M0,14.05A205.84,205.84,0,0,0,19.39,61.9a236.37,236.37,0,0,0,31,43.06V.11A49.85,49.85,0,0,1,18.58,15.5,54.86,54.86,0,0,1,0,14.05Z"/></g></g></svg>